<svg version="1.1" xmlns="http://www.w3.org/2000/svg" xmlns:xlink="http://www.w3.org/1999/xlink" width="705" height="606"><defs/><g><text fill="#eeeeee" stroke="none" font-family="Arial" font-size="24px" font-style="normal" font-weight="normal" text-decoration="none" x="0" y="0">UNREGISTERED</text><text fill="#eeeeee" stroke="none" font-family="Arial" font-size="24px" font-style="normal" font-weight="normal" text-decoration="none" x="0" y="30">UNREGISTERED</text><text fill="#eeeeee" stroke="none" font-family="Arial" font-size="24px" font-style="normal" font-weight="normal" text-decoration="none" x="0" y="60">UNREGISTERED</text><text fill="#eeeeee" stroke="none" font-family="Arial" font-size="24px" font-style="normal" font-weight="normal" text-decoration="none" x="0" y="90">UNREGISTERED</text><text fill="#eeeeee" stroke="none" font-family="Arial" font-size="24px" font-style="normal" font-weight="normal" text-decoration="none" x="0" y="120">UNREGISTERED</text><text fill="#eeeeee" stroke="none" font-family="Arial" font-size="24px" font-style="normal" font-weight="normal" text-decoration="none" x="0" y="150">UNREGISTERED</text><text fill="#eeeeee" stroke="none" font-family="Arial" font-size="24px" font-style="normal" font-weight="normal" text-decoration="none" x="0" y="180">UNREGISTERED</text><text fill="#eeeeee" stroke="none" font-family="Arial" font-size="24px" font-style="normal" font-weight="normal" text-decoration="none" x="0" y="210">UNREGISTERED</text><text fill="#eeeeee" stroke="none" font-family="Arial" font-size="24px" font-style="normal" font-weight="normal" text-decoration="none" x="0" y="240">UNREGISTERED</text><text fill="#eeeeee" stroke="none" font-family="Arial" font-size="24px" font-style="normal" font-weight="normal" text-decoration="none" x="0" y="270">UNREGISTERED</text><text fill="#eeeeee" stroke="none" font-family="Arial" font-size="24px" font-style="normal" font-weight="normal" text-decoration="none" x="0" y="300">UNREGISTERED</text><text fill="#eeeeee" stroke="none" font-family="Arial" font-size="24px" font-style="normal" font-weight="normal" text-decoration="none" x="0" y="330">UNREGISTERED</text><text fill="#eeeeee" stroke="none" font-family="Arial" font-size="24px" font-style="normal" font-weight="normal" text-decoration="none" x="0" y="360">UNREGISTERED</text><text fill="#eeeeee" stroke="none" font-family="Arial" font-size="24px" font-style="normal" font-weight="normal" text-decoration="none" x="0" y="390">UNREGISTERED</text><text fill="#eeeeee" stroke="none" font-family="Arial" font-size="24px" font-style="normal" font-weight="normal" text-decoration="none" x="0" y="420">UNREGISTERED</text><text fill="#eeeeee" stroke="none" font-family="Arial" font-size="24px" font-style="normal" font-weight="normal" text-decoration="none" x="0" y="450">UNREGISTERED</text><text fill="#eeeeee" stroke="none" font-family="Arial" font-size="24px" font-style="normal" font-weight="normal" text-decoration="none" x="0" y="480">UNREGISTERED</text><text fill="#eeeeee" stroke="none" font-family="Arial" font-size="24px" font-style="normal" font-weight="normal" text-decoration="none" x="0" y="510">UNREGISTERED</text><text fill="#eeeeee" stroke="none" font-family="Arial" font-size="24px" font-style="normal" font-weight="normal" text-decoration="none" x="0" y="540">UNREGISTERED</text><text fill="#eeeeee" stroke="none" font-family="Arial" font-size="24px" font-style="normal" font-weight="normal" text-decoration="none" x="0" y="570">UNREGISTERED</text><text fill="#eeeeee" stroke="none" font-family="Arial" font-size="24px" font-style="normal" font-weight="normal" text-decoration="none" x="0" y="600">UNREGISTERED</text><text fill="#eeeeee" stroke="none" font-family="Arial" font-size="24px" font-style="normal" font-weight="normal" text-decoration="none" x="200" y="0">UNREGISTERED</text><text fill="#eeeeee" stroke="none" font-family="Arial" font-size="24px" font-style="normal" font-weight="normal" text-decoration="none" x="200" y="30">UNREGISTERED</text><text fill="#eeeeee" stroke="none" font-family="Arial" font-size="24px" font-style="normal" font-weight="normal" text-decoration="none" x="200" y="60">UNREGISTERED</text><text fill="#eeeeee" stroke="none" font-family="Arial" font-size="24px" font-style="normal" font-weight="normal" text-decoration="none" x="200" y="90">UNREGISTERED</text><text fill="#eeeeee" stroke="none" font-family="Arial" font-size="24px" font-style="normal" font-weight="normal" text-decoration="none" x="200" y="120">UNREGISTERED</text><text fill="#eeeeee" stroke="none" font-family="Arial" font-size="24px" font-style="normal" font-weight="normal" text-decoration="none" x="200" y="150">UNREGISTERED</text><text fill="#eeeeee" stroke="none" font-family="Arial" font-size="24px" font-style="normal" font-weight="normal" text-decoration="none" x="200" y="180">UNREGISTERED</text><text fill="#eeeeee" stroke="none" font-family="Arial" font-size="24px" font-style="normal" font-weight="normal" text-decoration="none" x="200" y="210">UNREGISTERED</text><text fill="#eeeeee" stroke="none" font-family="Arial" font-size="24px" font-style="normal" font-weight="normal" text-decoration="none" x="200" y="240">UNREGISTERED</text><text fill="#eeeeee" stroke="none" font-family="Arial" font-size="24px" font-style="normal" font-weight="normal" text-decoration="none" x="200" y="270">UNREGISTERED</text><text fill="#eeeeee" stroke="none" font-family="Arial" font-size="24px" font-style="normal" font-weight="normal" text-decoration="none" x="200" y="300">UNREGISTERED</text><text fill="#eeeeee" stroke="none" font-family="Arial" font-size="24px" font-style="normal" font-weight="normal" text-decoration="none" x="200" y="330">UNREGISTERED</text><text fill="#eeeeee" stroke="none" font-family="Arial" font-size="24px" font-style="normal" font-weight="normal" text-decoration="none" x="200" y="360">UNREGISTERED</text><text fill="#eeeeee" stroke="none" font-family="Arial" font-size="24px" font-style="normal" font-weight="normal" text-decoration="none" x="200" y="390">UNREGISTERED</text><text fill="#eeeeee" stroke="none" font-family="Arial" font-size="24px" font-style="normal" font-weight="normal" text-decoration="none" x="200" y="420">UNREGISTERED</text><text fill="#eeeeee" stroke="none" font-family="Arial" font-size="24px" font-style="normal" font-weight="normal" text-decoration="none" x="200" y="450">UNREGISTERED</text><text fill="#eeeeee" stroke="none" font-family="Arial" font-size="24px" font-style="normal" font-weight="normal" text-decoration="none" x="200" y="480">UNREGISTERED</text><text fill="#eeeeee" stroke="none" font-family="Arial" font-size="24px" font-style="normal" font-weight="normal" text-decoration="none" x="200" y="510">UNREGISTERED</text><text fill="#eeeeee" stroke="none" font-family="Arial" font-size="24px" font-style="normal" font-weight="normal" text-decoration="none" x="200" y="540">UNREGISTERED</text><text fill="#eeeeee" stroke="none" font-family="Arial" font-size="24px" font-style="normal" font-weight="normal" text-decoration="none" x="200" y="570">UNREGISTERED</text><text fill="#eeeeee" stroke="none" font-family="Arial" font-size="24px" font-style="normal" font-weight="normal" text-decoration="none" x="200" y="600">UNREGISTERED</text><text fill="#eeeeee" stroke="none" font-family="Arial" font-size="24px" font-style="normal" font-weight="normal" text-decoration="none" x="400" y="0">UNREGISTERED</text><text fill="#eeeeee" stroke="none" font-family="Arial" font-size="24px" font-style="normal" font-weight="normal" text-decoration="none" x="400" y="30">UNREGISTERED</text><text fill="#eeeeee" stroke="none" font-family="Arial" font-size="24px" font-style="normal" font-weight="normal" text-decoration="none" x="400" y="60">UNREGISTERED</text><text fill="#eeeeee" stroke="none" font-family="Arial" font-size="24px" font-style="normal" font-weight="normal" text-decoration="none" x="400" y="90">UNREGISTERED</text><text fill="#eeeeee" stroke="none" font-family="Arial" font-size="24px" font-style="normal" font-weight="normal" text-decoration="none" x="400" y="120">UNREGISTERED</text><text fill="#eeeeee" stroke="none" font-family="Arial" font-size="24px" font-style="normal" font-weight="normal" text-decoration="none" x="400" y="150">UNREGISTERED</text><text fill="#eeeeee" stroke="none" font-family="Arial" font-size="24px" font-style="normal" font-weight="normal" text-decoration="none" x="400" y="180">UNREGISTERED</text><text fill="#eeeeee" stroke="none" font-family="Arial" font-size="24px" font-style="normal" font-weight="normal" text-decoration="none" x="400" y="210">UNREGISTERED</text><text fill="#eeeeee" stroke="none" font-family="Arial" font-size="24px" font-style="normal" font-weight="normal" text-decoration="none" x="400" y="240">UNREGISTERED</text><text fill="#eeeeee" stroke="none" font-family="Arial" font-size="24px" font-style="normal" font-weight="normal" text-decoration="none" x="400" y="270">UNREGISTERED</text><text fill="#eeeeee" stroke="none" font-family="Arial" font-size="24px" font-style="normal" font-weight="normal" text-decoration="none" x="400" y="300">UNREGISTERED</text><text fill="#eeeeee" stroke="none" font-family="Arial" font-size="24px" font-style="normal" font-weight="normal" text-decoration="none" x="400" y="330">UNREGISTERED</text><text fill="#eeeeee" stroke="none" font-family="Arial" font-size="24px" font-style="normal" font-weight="normal" text-decoration="none" x="400" y="360">UNREGISTERED</text><text fill="#eeeeee" stroke="none" font-family="Arial" font-size="24px" font-style="normal" font-weight="normal" text-decoration="none" x="400" y="390">UNREGISTERED</text><text fill="#eeeeee" stroke="none" font-family="Arial" font-size="24px" font-style="normal" font-weight="normal" text-decoration="none" x="400" y="420">UNREGISTERED</text><text fill="#eeeeee" stroke="none" font-family="Arial" font-size="24px" font-style="normal" font-weight="normal" text-decoration="none" x="400" y="450">UNREGISTERED</text><text fill="#eeeeee" stroke="none" font-family="Arial" font-size="24px" font-style="normal" font-weight="normal" text-decoration="none" x="400" y="480">UNREGISTERED</text><text fill="#eeeeee" stroke="none" font-family="Arial" font-size="24px" font-style="normal" font-weight="normal" text-decoration="none" x="400" y="510">UNREGISTERED</text><text fill="#eeeeee" stroke="none" font-family="Arial" font-size="24px" font-style="normal" font-weight="normal" text-decoration="none" x="400" y="540">UNREGISTERED</text><text fill="#eeeeee" stroke="none" font-family="Arial" font-size="24px" font-style="normal" font-weight="normal" text-decoration="none" x="400" y="570">UNREGISTERED</text><text fill="#eeeeee" stroke="none" font-family="Arial" font-size="24px" font-style="normal" font-weight="normal" text-decoration="none" x="400" y="600">UNREGISTERED</text><text fill="#eeeeee" stroke="none" font-family="Arial" font-size="24px" font-style="normal" font-weight="normal" text-decoration="none" x="600" y="0">UNREGISTERED</text><text fill="#eeeeee" stroke="none" font-family="Arial" font-size="24px" font-style="normal" font-weight="normal" text-decoration="none" x="600" y="30">UNREGISTERED</text><text fill="#eeeeee" stroke="none" font-family="Arial" font-size="24px" font-style="normal" font-weight="normal" text-decoration="none" x="600" y="60">UNREGISTERED</text><text fill="#eeeeee" stroke="none" font-family="Arial" font-size="24px" font-style="normal" font-weight="normal" text-decoration="none" x="600" y="90">UNREGISTERED</text><text fill="#eeeeee" stroke="none" font-family="Arial" font-size="24px" font-style="normal" font-weight="normal" text-decoration="none" x="600" y="120">UNREGISTERED</text><text fill="#eeeeee" stroke="none" font-family="Arial" font-size="24px" font-style="normal" font-weight="normal" text-decoration="none" x="600" y="150">UNREGISTERED</text><text fill="#eeeeee" stroke="none" font-family="Arial" font-size="24px" font-style="normal" font-weight="normal" text-decoration="none" x="600" y="180">UNREGISTERED</text><text fill="#eeeeee" stroke="none" font-family="Arial" font-size="24px" font-style="normal" font-weight="normal" text-decoration="none" x="600" y="210">UNREGISTERED</text><text fill="#eeeeee" stroke="none" font-family="Arial" font-size="24px" font-style="normal" font-weight="normal" text-decoration="none" x="600" y="240">UNREGISTERED</text><text fill="#eeeeee" stroke="none" font-family="Arial" font-size="24px" font-style="normal" font-weight="normal" text-decoration="none" x="600" y="270">UNREGISTERED</text><text fill="#eeeeee" stroke="none" font-family="Arial" font-size="24px" font-style="normal" font-weight="normal" text-decoration="none" x="600" y="300">UNREGISTERED</text><text fill="#eeeeee" stroke="none" font-family="Arial" font-size="24px" font-style="normal" font-weight="normal" text-decoration="none" x="600" y="330">UNREGISTERED</text><text fill="#eeeeee" stroke="none" font-family="Arial" font-size="24px" font-style="normal" font-weight="normal" text-decoration="none" x="600" y="360">UNREGISTERED</text><text fill="#eeeeee" stroke="none" font-family="Arial" font-size="24px" font-style="normal" font-weight="normal" text-decoration="none" x="600" y="390">UNREGISTERED</text><text fill="#eeeeee" stroke="none" font-family="Arial" font-size="24px" font-style="normal" font-weight="normal" text-decoration="none" x="600" y="420">UNREGISTERED</text><text fill="#eeeeee" stroke="none" font-family="Arial" font-size="24px" font-style="normal" font-weight="normal" text-decoration="none" x="600" y="450">UNREGISTERED</text><text fill="#eeeeee" stroke="none" font-family="Arial" font-size="24px" font-style="normal" font-weight="normal" text-decoration="none" x="600" y="480">UNREGISTERED</text><text fill="#eeeeee" stroke="none" font-family="Arial" font-size="24px" font-style="normal" font-weight="normal" text-decoration="none" x="600" y="510">UNREGISTERED</text><text fill="#eeeeee" stroke="none" font-family="Arial" font-size="24px" font-style="normal" font-weight="normal" text-decoration="none" x="600" y="540">UNREGISTERED</text><text fill="#eeeeee" stroke="none" font-family="Arial" font-size="24px" font-style="normal" font-weight="normal" text-decoration="none" x="600" y="570">UNREGISTERED</text><text fill="#eeeeee" stroke="none" font-family="Arial" font-size="24px" font-style="normal" font-weight="normal" text-decoration="none" x="600" y="600">UNREGISTERED</text><g transform="translate(-86,-62) scale(1,1)"><path fill="#ffffff" stroke="none" d="M 123.60661594460228 81.68 C 123.60661594460228 76.886167936 127.49245826954774 73 132.285888671875 73 C 137.07931907420226 73 140.96516139914772 76.886167936 140.96516139914772 81.68 C 140.96516139914772 86.473832064 137.07931907420226 90.36 132.285888671875 90.36 C 127.49245826954774 90.36 123.60661594460228 86.473832064 123.60661594460228 81.68 Z"/></g><g transform="translate(-86,-62) scale(1,1)"><path fill="none" stroke="#000000" d="M 123.60661594460228 81.68 C 123.60661594460228 76.886167936 127.49245826954774 73 132.285888671875 73 C 137.07931907420226 73 140.96516139914772 76.886167936 140.96516139914772 81.68 C 140.96516139914772 86.473832064 137.07931907420226 90.36 132.285888671875 90.36 C 127.49245826954774 90.36 123.60661594460228 86.473832064 123.60661594460228 81.68 Z" stroke-miterlimit="10"/></g><g transform="translate(-86,-62) scale(1,1)"><path fill="none" stroke="#000000" d="M 132.285888671875 90.36 L 132.285888671875 107.64" stroke-miterlimit="10"/></g><g transform="translate(-86,-62) scale(1,1)"><path fill="none" stroke="#000000" d="M 123.09607049005683 96.84 L 141.47570685369317 96.84" stroke-miterlimit="10"/></g><g transform="translate(-86,-62) scale(1,1)"><path fill="none" stroke="#000000" d="M 132.285888671875 107.64 L 119.52225230823865 125" stroke-miterlimit="10"/></g><g transform="translate(-86,-62) scale(1,1)"><path fill="none" stroke="#000000" d="M 132.285888671875 107.64 L 145.04952503551135 125" stroke-miterlimit="10"/></g><g transform="translate(-86,-62) scale(1,1)"><g><path fill="none" stroke="none"/><text fill="#000000" stroke="none" font-family="Arial" font-size="13px" font-style="normal" font-weight="bold" text-decoration="none" x="103.38818359375" y="145.5">Utilisateur</text></g></g><g transform="translate(-86,-62) scale(1,1)"><path fill="#ffffff" stroke="none" d="M 112.40935031960228 281.68 C 112.40935031960228 276.886167936 116.29519264454774 273 121.088623046875 273 C 125.88205344920226 273 129.76789577414772 276.886167936 129.76789577414772 281.68 C 129.76789577414772 286.473832064 125.88205344920226 290.36 121.088623046875 290.36 C 116.29519264454774 290.36 112.40935031960228 286.473832064 112.40935031960228 281.68 Z"/></g><g transform="translate(-86,-62) scale(1,1)"><path fill="none" stroke="#000000" d="M 112.40935031960228 281.68 C 112.40935031960228 276.886167936 116.29519264454774 273 121.088623046875 273 C 125.88205344920226 273 129.76789577414772 276.886167936 129.76789577414772 281.68 C 129.76789577414772 286.473832064 125.88205344920226 290.36 121.088623046875 290.36 C 116.29519264454774 290.36 112.40935031960228 286.473832064 112.40935031960228 281.68 Z" stroke-miterlimit="10"/></g><g transform="translate(-86,-62) scale(1,1)"><path fill="none" stroke="#000000" d="M 121.088623046875 290.36 L 121.088623046875 307.64" stroke-miterlimit="10"/></g><g transform="translate(-86,-62) scale(1,1)"><path fill="none" stroke="#000000" d="M 111.89880486505683 296.84 L 130.27844122869317 296.84" stroke-miterlimit="10"/></g><g transform="translate(-86,-62) scale(1,1)"><path fill="none" stroke="#000000" d="M 121.088623046875 307.64 L 108.32498668323865 325" stroke-miterlimit="10"/></g><g transform="translate(-86,-62) scale(1,1)"><path fill="none" stroke="#000000" d="M 121.088623046875 307.64 L 133.85225941051135 325" stroke-miterlimit="10"/></g><g transform="translate(-86,-62) scale(1,1)"><g><path fill="none" stroke="none"/><text fill="#000000" stroke="none" font-family="Arial" font-size="13px" font-style="normal" font-weight="bold" text-decoration="none" x="104.470458984375" y="345.5">Client</text></g></g><g transform="translate(-86,-62) scale(1,1)"><path fill="#ffffff" stroke="none" d="M 138.05070774147728 537.6800000000001 C 138.05070774147728 532.8861679360001 141.93655006642274 529 146.72998046875 529 C 151.52341087107726 529 155.40925319602272 532.8861679360001 155.40925319602272 537.6800000000001 C 155.40925319602272 542.473832064 151.52341087107726 546.36 146.72998046875 546.36 C 141.93655006642274 546.36 138.05070774147728 542.473832064 138.05070774147728 537.6800000000001 Z"/></g><g transform="translate(-86,-62) scale(1,1)"><path fill="none" stroke="#000000" d="M 138.05070774147728 537.6800000000001 C 138.05070774147728 532.8861679360001 141.93655006642274 529 146.72998046875 529 C 151.52341087107726 529 155.40925319602272 532.8861679360001 155.40925319602272 537.6800000000001 C 155.40925319602272 542.473832064 151.52341087107726 546.36 146.72998046875 546.36 C 141.93655006642274 546.36 138.05070774147728 542.473832064 138.05070774147728 537.6800000000001 Z" stroke-miterlimit="10"/></g><g transform="translate(-86,-62) scale(1,1)"><path fill="none" stroke="#000000" d="M 146.72998046875 546.36 L 146.72998046875 563.64" stroke-miterlimit="10"/></g><g transform="translate(-86,-62) scale(1,1)"><path fill="none" stroke="#000000" d="M 137.54016228693183 552.84 L 155.91979865056817 552.84" stroke-miterlimit="10"/></g><g transform="translate(-86,-62) scale(1,1)"><path fill="none" stroke="#000000" d="M 146.72998046875 563.64 L 133.96634410511365 581" stroke-miterlimit="10"/></g><g transform="translate(-86,-62) scale(1,1)"><path fill="none" stroke="#000000" d="M 146.72998046875 563.64 L 159.49361683238635 581" stroke-miterlimit="10"/></g><g transform="translate(-86,-62) scale(1,1)"><g><path fill="none" stroke="none"/><text fill="#000000" stroke="none" font-family="Arial" font-size="13px" font-style="normal" font-weight="bold" text-decoration="none" x="104.825927734375" y="601.5">Administrateur</text></g></g><g transform="translate(-86,-62) scale(1,1)"><path fill="#C0C0C0" stroke="none" d="M 351 136 C 351 126.6111584 386.5933584 119 430.5 119 C 474.4066416 119 510 126.6111584 510 136 C 510 145.3888416 474.4066416 153 430.5 153 C 386.5933584 153 351 145.3888416 351 136 Z" opacity="0.2"/></g><g transform="translate(-86,-62) scale(1,1)"><path fill="#ffffff" stroke="none" d="M 344 129 C 344 119.6111584 379.5933584 112 423.5 112 C 467.4066416 112 503 119.6111584 503 129 C 503 138.3888416 467.4066416 146 423.5 146 C 379.5933584 146 344 138.3888416 344 129 Z"/></g><g transform="translate(-86,-62) scale(1,1)"><path fill="none" stroke="#000000" d="M 344 129 C 344 119.6111584 379.5933584 112 423.5 112 C 467.4066416 112 503 119.6111584 503 129 C 503 138.3888416 467.4066416 146 423.5 146 C 379.5933584 146 344 138.3888416 344 129 Z" stroke-miterlimit="10"/></g><g transform="translate(-86,-62) scale(1,1)"><g><path fill="none" stroke="none"/><text fill="#000000" stroke="none" font-family="Arial" font-size="13px" font-style="normal" font-weight="bold" text-decoration="none" x="375.089599609375" y="136">Creer un compte</text></g></g><g transform="translate(-86,-62) scale(1,1)"><path fill="#C0C0C0" stroke="none" d="M 215 320 C 215 310.6111584 280.8141344 303 362 303 C 443.1858656 303 509 310.6111584 509 320 C 509 329.3888416 443.1858656 337 362 337 C 280.8141344 337 215 329.3888416 215 320 Z" opacity="0.2"/></g><g transform="translate(-86,-62) scale(1,1)"><path fill="#ffffff" stroke="none" d="M 208 313 C 208 303.6111584 273.8141344 296 355 296 C 436.1858656 296 502 303.6111584 502 313 C 502 322.3888416 436.1858656 330 355 330 C 273.8141344 330 208 322.3888416 208 313 Z"/></g><g transform="translate(-86,-62) scale(1,1)"><path fill="none" stroke="#000000" d="M 208 313 C 208 303.6111584 273.8141344 296 355 296 C 436.1858656 296 502 303.6111584 502 313 C 502 322.3888416 436.1858656 330 355 330 C 273.8141344 330 208 322.3888416 208 313 Z" stroke-miterlimit="10"/></g><g transform="translate(-86,-62) scale(1,1)"><g><path fill="none" stroke="none"/><text fill="#000000" stroke="none" font-family="Arial" font-size="13px" font-style="normal" font-weight="bold" text-decoration="none" x="262.8701171875" y="320">Chercher le store le plus proche</text></g></g><g transform="translate(-86,-62) scale(1,1)"><path fill="#C0C0C0" stroke="none" d="M 271 384 C 271 374.6111584 317.11466559999997 367 374 367 C 430.88533440000003 367 477 374.6111584 477 384 C 477 393.3888416 430.88533440000003 401 374 401 C 317.11466559999997 401 271 393.3888416 271 384 Z" opacity="0.2"/></g><g transform="translate(-86,-62) scale(1,1)"><path fill="#ffffff" stroke="none" d="M 264 377 C 264 367.6111584 310.11466559999997 360 367 360 C 423.88533440000003 360 470 367.6111584 470 377 C 470 386.3888416 423.88533440000003 394 367 394 C 310.11466559999997 394 264 386.3888416 264 377 Z"/></g><g transform="translate(-86,-62) scale(1,1)"><path fill="none" stroke="#000000" d="M 264 377 C 264 367.6111584 310.11466559999997 360 367 360 C 423.88533440000003 360 470 367.6111584 470 377 C 470 386.3888416 423.88533440000003 394 367 394 C 310.11466559999997 394 264 386.3888416 264 377 Z" stroke-miterlimit="10"/></g><g transform="translate(-86,-62) scale(1,1)"><g><path fill="none" stroke="none"/><text fill="#000000" stroke="none" font-family="Arial" font-size="13px" font-style="normal" font-weight="bold" text-decoration="none" x="302.695068359375" y="384">Réagir avec les cartes</text></g></g><g transform="translate(-86,-62) scale(1,1)"><path fill="#C0C0C0" stroke="none" d="M 239 232 C 239 222.6111584 281.0852288 215 333 215 C 384.9147712 215 427 222.6111584 427 232 C 427 241.3888416 384.9147712 249 333 249 C 281.0852288 249 239 241.3888416 239 232 Z" opacity="0.2"/></g><g transform="translate(-86,-62) scale(1,1)"><path fill="#ffffff" stroke="none" d="M 232 225 C 232 215.6111584 274.0852288 208 326 208 C 377.9147712 208 420 215.6111584 420 225 C 420 234.3888416 377.9147712 242 326 242 C 274.0852288 242 232 234.3888416 232 225 Z"/></g><g transform="translate(-86,-62) scale(1,1)"><path fill="none" stroke="#000000" d="M 232 225 C 232 215.6111584 274.0852288 208 326 208 C 377.9147712 208 420 215.6111584 420 225 C 420 234.3888416 377.9147712 242 326 242 C 274.0852288 242 232 234.3888416 232 225 Z" stroke-miterlimit="10"/></g><g transform="translate(-86,-62) scale(1,1)"><g><path fill="none" stroke="none"/><text fill="#000000" stroke="none" font-family="Arial" font-size="13px" font-style="normal" font-weight="bold" text-decoration="none" x="268.56005859375" y="232">Consulter les cartes</text></g></g><g transform="translate(-86,-62) scale(1,1)"><path fill="#C0C0C0" stroke="none" d="M 687 368 C 687 358.6111584 709.6096176 351 737.5 351 C 765.3903824 351 788 358.6111584 788 368 C 788 377.3888416 765.3903824 385 737.5 385 C 709.6096176 385 687 377.3888416 687 368 Z" opacity="0.2"/></g><g transform="translate(-86,-62) scale(1,1)"><path fill="#ffffff" stroke="none" d="M 680 361 C 680 351.6111584 702.6096176 344 730.5 344 C 758.3903824 344 781 351.6111584 781 361 C 781 370.3888416 758.3903824 378 730.5 378 C 702.6096176 378 680 370.3888416 680 361 Z"/></g><g transform="translate(-86,-62) scale(1,1)"><path fill="none" stroke="#000000" d="M 680 361 C 680 351.6111584 702.6096176 344 730.5 344 C 758.3903824 344 781 351.6111584 781 361 C 781 370.3888416 758.3903824 378 730.5 378 C 702.6096176 378 680 370.3888416 680 361 Z" stroke-miterlimit="10"/></g><g transform="translate(-86,-62) scale(1,1)"><g><path fill="none" stroke="none"/><text fill="#000000" stroke="none" font-family="Arial" font-size="13px" font-style="normal" font-weight="bold" text-decoration="none" x="700.15185546875" y="368">UseCase5</text></g></g><g transform="translate(-86,-62) scale(1,1)"><path fill="#C0C0C0" stroke="none" d="M 135 464 C 135 454.6111584 168.3547824 447 209.5 447 C 250.6452176 447 284 454.6111584 284 464 C 284 473.3888416 250.6452176 481 209.5 481 C 168.3547824 481 135 473.3888416 135 464 Z" opacity="0.2"/></g><g transform="translate(-86,-62) scale(1,1)"><path fill="#ffffff" stroke="none" d="M 128 457 C 128 447.6111584 161.3547824 440 202.5 440 C 243.6452176 440 277 447.6111584 277 457 C 277 466.3888416 243.6452176 474 202.5 474 C 161.3547824 474 128 466.3888416 128 457 Z"/></g><g transform="translate(-86,-62) scale(1,1)"><path fill="none" stroke="#000000" d="M 128 457 C 128 447.6111584 161.3547824 440 202.5 440 C 243.6452176 440 277 447.6111584 277 457 C 277 466.3888416 243.6452176 474 202.5 474 C 161.3547824 474 128 466.3888416 128 457 Z" stroke-miterlimit="10"/></g><g transform="translate(-86,-62) scale(1,1)"><g><path fill="none" stroke="none"/><text fill="#000000" stroke="none" font-family="Arial" font-size="13px" font-style="normal" font-weight="bold" text-decoration="none" x="158.07275390625" y="464">Disliker la carte</text></g></g><g transform="translate(-86,-62) scale(1,1)"><path fill="#C0C0C0" stroke="none" d="M 383 576 C 383 566.6111584 405.6096176 559 433.5 559 C 461.3903824 559 484 566.6111584 484 576 C 484 585.3888416 461.3903824 593 433.5 593 C 405.6096176 593 383 585.3888416 383 576 Z" opacity="0.2"/></g><g transform="translate(-86,-62) scale(1,1)"><path fill="#ffffff" stroke="none" d="M 376 569 C 376 559.6111584 398.6096176 552 426.5 552 C 454.3903824 552 477 559.6111584 477 569 C 477 578.3888416 454.3903824 586 426.5 586 C 398.6096176 586 376 578.3888416 376 569 Z"/></g><g transform="translate(-86,-62) scale(1,1)"><path fill="none" stroke="#000000" d="M 376 569 C 376 559.6111584 398.6096176 552 426.5 552 C 454.3903824 552 477 559.6111584 477 569 C 477 578.3888416 454.3903824 586 426.5 586 C 398.6096176 586 376 578.3888416 376 569 Z" stroke-miterlimit="10"/></g><g transform="translate(-86,-62) scale(1,1)"><g><path fill="none" stroke="none"/><text fill="#000000" stroke="none" font-family="Arial" font-size="13px" font-style="normal" font-weight="bold" text-decoration="none" x="396.15185546875" y="576">UseCase7</text></g></g><g transform="translate(-86,-62) scale(1,1)"><path fill="#C0C0C0" stroke="none" d="M 415 648 C 415 638.6111584 437.6096176 631 465.5 631 C 493.3903824 631 516 638.6111584 516 648 C 516 657.3888416 493.3903824 665 465.5 665 C 437.6096176 665 415 657.3888416 415 648 Z" opacity="0.2"/></g><g transform="translate(-86,-62) scale(1,1)"><path fill="#ffffff" stroke="none" d="M 408 641 C 408 631.6111584 430.6096176 624 458.5 624 C 486.3903824 624 509 631.6111584 509 641 C 509 650.3888416 486.3903824 658 458.5 658 C 430.6096176 658 408 650.3888416 408 641 Z"/></g><g transform="translate(-86,-62) scale(1,1)"><path fill="none" stroke="#000000" d="M 408 641 C 408 631.6111584 430.6096176 624 458.5 624 C 486.3903824 624 509 631.6111584 509 641 C 509 650.3888416 486.3903824 658 458.5 658 C 430.6096176 658 408 650.3888416 408 641 Z" stroke-miterlimit="10"/></g><g transform="translate(-86,-62) scale(1,1)"><g><path fill="none" stroke="none"/><text fill="#000000" stroke="none" font-family="Arial" font-size="13px" font-style="normal" font-weight="bold" text-decoration="none" x="428.15185546875" y="648">UseCase8</text></g></g><g transform="translate(-86,-62) scale(1,1)"><path fill="#C0C0C0" stroke="none" d="M 319 504 C 319 494.6111584 348.9969184 487 386 487 C 423.0030816 487 453 494.6111584 453 504 C 453 513.3888416 423.0030816 521 386 521 C 348.9969184 521 319 513.3888416 319 504 Z" opacity="0.2"/></g><g transform="translate(-86,-62) scale(1,1)"><path fill="#ffffff" stroke="none" d="M 312 497 C 312 487.6111584 341.9969184 480 379 480 C 416.0030816 480 446 487.6111584 446 497 C 446 506.3888416 416.0030816 514 379 514 C 341.9969184 514 312 506.3888416 312 497 Z"/></g><g transform="translate(-86,-62) scale(1,1)"><path fill="none" stroke="#000000" d="M 312 497 C 312 487.6111584 341.9969184 480 379 480 C 416.0030816 480 446 487.6111584 446 497 C 446 506.3888416 416.0030816 514 379 514 C 341.9969184 514 312 506.3888416 312 497 Z" stroke-miterlimit="10"/></g><g transform="translate(-86,-62) scale(1,1)"><g><path fill="none" stroke="none"/><text fill="#000000" stroke="none" font-family="Arial" font-size="13px" font-style="normal" font-weight="bold" text-decoration="none" x="338.905029296875" y="504">Aimer la carte</text></g></g><g transform="translate(-86,-62) scale(1,1)"><path fill="#C0C0C0" stroke="none" d="M 471 480 C 471 470.6111584 512.1897984 463 563 463 C 613.8102016 463 655 470.6111584 655 480 C 655 489.3888416 613.8102016 497 563 497 C 512.1897984 497 471 489.3888416 471 480 Z" opacity="0.2"/></g><g transform="translate(-86,-62) scale(1,1)"><path fill="#ffffff" stroke="none" d="M 464 473 C 464 463.6111584 505.1897984 456 556 456 C 606.8102016 456 648 463.6111584 648 473 C 648 482.3888416 606.8102016 490 556 490 C 505.1897984 490 464 482.3888416 464 473 Z"/></g><g transform="translate(-86,-62) scale(1,1)"><path fill="none" stroke="#000000" d="M 464 473 C 464 463.6111584 505.1897984 456 556 456 C 606.8102016 456 648 463.6111584 648 473 C 648 482.3888416 606.8102016 490 556 490 C 505.1897984 490 464 482.3888416 464 473 Z" stroke-miterlimit="10"/></g><g transform="translate(-86,-62) scale(1,1)"><g><path fill="none" stroke="none"/><text fill="#000000" stroke="none" font-family="Arial" font-size="13px" font-style="normal" font-weight="bold" text-decoration="none" x="498.925048828125" y="480">Commenter la carte</text></g></g><g transform="translate(-86,-62) scale(1,1)"><path fill="none" stroke="#000000" d="M 202 440 L 202 432 L 306 432 L 306 416 L 304 416 L 304 394" stroke-miterlimit="10"/></g><g transform="translate(-86,-62) scale(1,1)"><path fill="#FFFFFF" stroke="none" d="M 312.419035512032 414.3253497152483 L 304 394 L 295.580964487968 414.3253497152483"/></g><g transform="translate(-86,-62) scale(1,1)"><path fill="none" stroke="#000000" d="M 312.419035512032 414.3253497152483 L 304 394 L 295.580964487968 414.3253497152483 L 312.419035512032 414.3253497152483" stroke-miterlimit="10"/></g><g transform="translate(-86,-62) scale(1,1)"><path fill="none" stroke="#000000" d="M 392 480 L 392 394" stroke-miterlimit="10"/></g><g transform="translate(-86,-62) scale(1,1)"><path fill="#FFFFFF" stroke="none" d="M 400.419035512032 414.3253497152483 L 392 394 L 383.580964487968 414.3253497152483"/></g><g transform="translate(-86,-62) scale(1,1)"><path fill="none" stroke="#000000" d="M 400.419035512032 414.3253497152483 L 392 394 L 383.580964487968 414.3253497152483 L 400.419035512032 414.3253497152483" stroke-miterlimit="10"/></g><g transform="translate(-86,-62) scale(1,1)"><path fill="none" stroke="#000000" d="M 540 456 L 540 416 L 432 416 L 432 394" stroke-miterlimit="10"/></g><g transform="translate(-86,-62) scale(1,1)"><path fill="#FFFFFF" stroke="none" d="M 440.419035512032 414.3253497152483 L 432 394 L 423.580964487968 414.3253497152483"/></g><g transform="translate(-86,-62) scale(1,1)"><path fill="none" stroke="#000000" d="M 440.419035512032 414.3253497152483 L 432 394 L 423.580964487968 414.3253497152483 L 440.419035512032 414.3253497152483" stroke-miterlimit="10"/></g><g transform="translate(-86,-62) scale(1,1)"><path fill="none" stroke="#000000" d="M 344 128 L 169 128" stroke-miterlimit="10"/></g><g transform="translate(-86,-62) scale(1,1)"><path fill="none" stroke="#000000" d="M 283 243 L 147 300" stroke-miterlimit="10"/></g></g></svg>